<svg width="314" height="104" viewBox="0 0 314 104" fill="none" xmlns="http://www.w3.org/2000/svg">
<path d="M6.902 56.232C5.58733 56.232 4.408 55.7487 3.364 54.782C2.32 53.7767 1.798 52.0947 1.798 49.736C1.798 48.1893 2.01067 46.4687 2.436 44.574C2.9 42.6793 3.44133 40.7267 4.06 38.716C4.71733 36.6667 5.37467 34.6947 6.032 32.8C6.68933 30.9053 7.23067 29.1847 7.656 27.638C8.08133 26.0913 8.294 24.8733 8.294 23.984C8.294 22.94 7.888 22.418 7.076 22.418C6.10933 22.418 5.20067 22.9787 4.35 24.1C3.49933 25.1827 2.552 26.71 1.508 28.682L1.16 28.566C1.16 25.5113 1.972 22.8627 3.596 20.62C5.22 18.3387 7.40467 16.5793 10.15 15.342C12.934 14.1047 16.0273 13.486 19.43 13.486C22.8713 13.486 25.6553 14.0853 27.782 15.284C29.9473 16.444 31.5327 17.9713 32.538 19.866C33.582 21.722 34.104 23.7133 34.104 25.84C34.104 27.6573 33.756 29.4747 33.06 31.292C32.4027 33.0707 31.436 34.6947 30.16 36.164C28.9227 37.6333 27.4533 38.8127 25.752 39.702C24.0507 40.5913 22.1753 41.036 20.126 41.036C17.9993 41.036 15.7953 40.4947 13.514 39.412C13.0113 41.3067 12.5667 43.24 12.18 45.212C11.7933 47.1453 11.6 49.1367 11.6 51.186C11.6 52.1913 11.658 53.1967 11.774 54.202C11.1167 54.8593 10.3433 55.362 9.454 55.71C8.60333 56.058 7.75267 56.232 6.902 56.232ZM16.182 35.236C17.7287 35.236 19.082 34.8107 20.242 33.96C21.402 33.0707 22.2913 31.9687 22.91 30.654C23.5673 29.3007 23.896 27.9473 23.896 26.594C23.896 25.0087 23.374 23.5973 22.33 22.36C21.3247 21.1227 19.662 20.504 17.342 20.504C17.0327 20.504 16.6653 20.5233 16.24 20.562C15.8533 20.6007 15.4473 20.6587 15.022 20.736C15.3313 21.7027 15.5247 22.6693 15.602 23.636C15.718 24.564 15.776 25.4727 15.776 26.362C15.776 27.9087 15.66 29.3973 15.428 30.828C15.196 32.2587 14.9253 33.67 14.616 35.062C15.1573 35.178 15.6793 35.236 16.182 35.236ZM47.1748 56.406C44.3522 56.406 42.0128 55.8453 40.1568 54.724C38.3008 53.564 36.9088 52.056 35.9808 50.2C35.0528 48.3053 34.5888 46.2753 34.5888 44.11C34.5888 42.0607 34.9755 40.0113 35.7488 37.962C36.5608 35.874 37.7208 33.9793 39.2288 32.278C40.7755 30.5767 42.6315 29.204 44.7968 28.16C47.0008 27.116 49.4755 26.594 52.2208 26.594C55.6235 26.594 58.0982 27.3673 59.6448 28.914C61.2302 30.422 62.0228 32.2587 62.0228 34.424C62.0228 36.28 61.5202 38.0007 60.5148 39.586C59.5482 41.1327 58.2528 42.3893 56.6288 43.356C55.0048 44.284 53.2262 44.748 51.2928 44.748C50.2875 44.748 49.2628 44.5933 48.2188 44.284C47.1748 43.9747 46.1502 43.4913 45.1448 42.834C45.3382 45.2313 46.0342 46.9713 47.2328 48.054C48.4315 49.1367 49.8622 49.678 51.5248 49.678C52.6848 49.678 53.8448 49.4653 55.0048 49.04C56.1648 48.576 57.2282 47.996 58.1948 47.3C59.2002 46.5653 59.9735 45.792 60.5148 44.98L60.9208 45.27C60.9208 47.2807 60.4955 49.0013 59.6448 50.432C58.8328 51.824 57.7502 52.9647 56.3968 53.854C55.0435 54.7433 53.5548 55.4007 51.9308 55.826C50.3455 56.2127 48.7602 56.406 47.1748 56.406ZM48.5088 40.746C49.7462 40.746 50.7515 40.398 51.5248 39.702C52.2982 38.9673 52.8782 38.1167 53.2648 37.15C53.6515 36.1833 53.8448 35.3327 53.8448 34.598C53.8448 33.7087 53.5935 32.974 53.0908 32.394C52.5882 31.7753 51.8922 31.466 51.0028 31.466C50.3068 31.466 49.5335 31.7173 48.6828 32.22C47.8708 32.7227 47.1362 33.5927 46.4788 34.83C45.8215 36.0287 45.3962 37.7107 45.2028 39.876C46.4402 40.456 47.5422 40.746 48.5088 40.746ZM73.4701 56.232C72.2328 56.232 71.0535 55.9613 69.9321 55.42C68.8495 54.84 67.9601 53.9507 67.2641 52.752C66.6068 51.5533 66.2781 50.026 66.2781 48.17C66.2781 47.1647 66.3748 45.85 66.5681 44.226C66.7615 42.602 67.0128 40.8233 67.3221 38.89C67.6701 36.9567 68.0181 35.0233 68.3661 33.09C67.5928 33.1287 66.8388 33.206 66.1041 33.322C65.4081 33.438 64.7121 33.5733 64.0161 33.728L63.9001 33.322C64.6735 32.394 65.4855 31.6013 66.3361 30.944C67.1868 30.2867 68.0761 29.7453 69.0041 29.32C69.5068 26.768 69.9321 24.564 70.2801 22.708C70.6281 20.8133 70.8021 19.692 70.8021 19.344C70.8021 18.6867 71.3048 18.1453 72.3101 17.72C73.3541 17.2947 74.5141 17.082 75.7901 17.082C76.9115 17.082 77.9555 17.2947 78.9221 17.72C79.9275 18.1453 80.6041 18.8607 80.9521 19.866C80.7201 20.098 80.3915 20.968 79.9661 22.476C79.5408 23.9453 79.0961 25.7433 78.6321 27.87C79.3668 27.9087 80.1208 27.9473 80.8941 27.986C81.6675 28.0247 82.4601 28.0827 83.2721 28.16C83.3495 28.392 83.4075 28.6433 83.4461 28.914C83.4848 29.1847 83.5041 29.4747 83.5041 29.784C83.5041 30.364 83.4075 31.002 83.2141 31.698C83.0595 32.3553 82.8661 32.9547 82.6341 33.496C81.7061 33.4187 80.8361 33.3413 80.0241 33.264C79.2121 33.148 78.4195 33.0707 77.6461 33.032C77.3368 34.6947 77.0468 36.3573 76.7761 38.02C76.5441 39.6827 76.3508 41.1907 76.1961 42.544C76.0801 43.8973 76.0221 44.9607 76.0221 45.734C76.0221 47.358 76.3121 48.4407 76.8921 48.982C77.5108 49.5233 78.2455 49.794 79.0961 49.794C79.8695 49.794 80.5655 49.6393 81.1841 49.33C81.8028 49.0207 82.2475 48.6533 82.5181 48.228L83.0981 48.402C82.8661 49.9873 82.2475 51.3793 81.2421 52.578C80.2368 53.738 79.0381 54.6467 77.6461 55.304C76.2541 55.9227 74.8621 56.232 73.4701 56.232ZM97.5284 56.406C94.7057 56.406 92.3664 55.8453 90.5104 54.724C88.6544 53.564 87.2624 52.056 86.3344 50.2C85.4064 48.3053 84.9424 46.2753 84.9424 44.11C84.9424 42.0607 85.329 40.0113 86.1024 37.962C86.9144 35.874 88.0744 33.9793 89.5824 32.278C91.129 30.5767 92.985 29.204 95.1504 28.16C97.3544 27.116 99.829 26.594 102.574 26.594C105.977 26.594 108.452 27.3673 109.998 28.914C111.584 30.422 112.376 32.2587 112.376 34.424C112.376 36.28 111.874 38.0007 110.868 39.586C109.902 41.1327 108.606 42.3893 106.982 43.356C105.358 44.284 103.58 44.748 101.646 44.748C100.641 44.748 99.6164 44.5933 98.5724 44.284C97.5284 43.9747 96.5037 43.4913 95.4984 42.834C95.6917 45.2313 96.3877 46.9713 97.5864 48.054C98.785 49.1367 100.216 49.678 101.878 49.678C103.038 49.678 104.198 49.4653 105.358 49.04C106.518 48.576 107.582 47.996 108.548 47.3C109.554 46.5653 110.327 45.792 110.868 44.98L111.274 45.27C111.274 47.2807 110.849 49.0013 109.998 50.432C109.186 51.824 108.104 52.9647 106.75 53.854C105.397 54.7433 103.908 55.4007 102.284 55.826C100.699 56.2127 99.1137 56.406 97.5284 56.406ZM98.8624 40.746C100.1 40.746 101.105 40.398 101.878 39.702C102.652 38.9673 103.232 38.1167 103.618 37.15C104.005 36.1833 104.198 35.3327 104.198 34.598C104.198 33.7087 103.947 32.974 103.444 32.394C102.942 31.7753 102.246 31.466 101.356 31.466C100.66 31.466 99.887 31.7173 99.0364 32.22C98.2244 32.7227 97.4897 33.5927 96.8324 34.83C96.175 36.0287 95.7497 37.7107 95.5564 39.876C96.7937 40.456 97.8957 40.746 98.8624 40.746ZM122.09 56.232C120.698 56.232 119.461 55.6713 118.378 54.55C117.296 53.39 116.754 51.766 116.754 49.678C116.754 48.6727 116.87 47.532 117.102 46.256C117.334 44.98 117.605 43.6847 117.914 42.37C118.224 41.0167 118.494 39.76 118.726 38.6C118.958 37.4013 119.074 36.4153 119.074 35.642C119.074 34.83 118.92 34.192 118.61 33.728C118.34 33.2253 117.972 32.974 117.508 32.974C116.774 32.974 116.02 33.4767 115.246 34.482L114.898 34.25C114.86 33.6313 114.995 32.8967 115.304 32.046C115.614 31.1953 116.097 30.3833 116.754 29.61C117.412 28.798 118.243 28.1213 119.248 27.58C120.292 27.0387 121.51 26.768 122.902 26.768C124.952 26.768 126.44 27.3673 127.368 28.566C128.296 29.726 128.76 31.1373 128.76 32.8C128.76 33.0707 128.741 33.3607 128.702 33.67C128.702 33.9407 128.683 34.2113 128.644 34.482C130.036 31.9687 131.486 30.0547 132.994 28.74C134.541 27.3867 135.972 26.71 137.286 26.71C138.524 26.71 139.432 27.1933 140.012 28.16C140.592 29.1267 140.882 30.2867 140.882 31.64C140.882 32.8773 140.631 34.134 140.128 35.41C139.664 36.686 138.949 37.7493 137.982 38.6C137.054 39.412 135.914 39.7987 134.56 39.76L134.328 39.644C134.29 38.6387 133.961 37.846 133.342 37.266C132.724 36.686 132.028 36.396 131.254 36.396C130.21 36.396 129.224 36.918 128.296 37.962C127.407 39.006 126.962 40.514 126.962 42.486C126.962 43.6847 127.098 44.98 127.368 46.372C127.639 47.764 127.774 48.9433 127.774 49.91C127.774 51.07 127.504 52.1333 126.962 53.1C126.421 54.0667 125.725 54.84 124.874 55.42C124.024 55.9613 123.096 56.232 122.09 56.232ZM180.461 56.406C179.108 56.406 177.928 56.0773 176.923 55.42C175.956 54.724 175.106 53.8347 174.371 52.752C173.675 51.6693 173.056 50.49 172.515 49.214C172.012 47.8993 171.529 46.6427 171.065 45.444C170.369 43.5107 169.731 41.8287 169.151 40.398C168.571 38.9287 167.933 37.6913 167.237 36.686C166.502 39.6247 165.903 42.4473 165.439 45.154C165.014 47.8607 164.743 50.8767 164.627 54.202C163.931 54.8593 163.138 55.362 162.249 55.71C161.398 56.058 160.528 56.232 159.639 56.232C158.286 56.232 157.087 55.768 156.043 54.84C154.999 53.8733 154.477 52.2687 154.477 50.026C154.477 48.4793 154.709 46.7393 155.173 44.806C155.637 42.8727 156.198 40.8813 156.855 38.832C157.551 36.7827 158.247 34.7913 158.943 32.858C159.639 30.9247 160.219 29.1847 160.683 27.638C161.147 26.0527 161.379 24.796 161.379 23.868C161.379 22.9013 161.05 22.418 160.393 22.418C159.658 22.418 158.769 22.9787 157.725 24.1C156.681 25.1827 155.618 26.71 154.535 28.682L154.187 28.566C154.187 26.246 154.69 24.1773 155.695 22.36C156.7 20.5427 158.054 19.0153 159.755 17.778C161.495 16.502 163.486 15.5353 165.729 14.878C168.01 14.2207 170.388 13.892 172.863 13.892C176.15 13.892 178.818 14.414 180.867 15.458C182.916 16.4633 184.424 17.778 185.391 19.402C186.396 20.9873 186.899 22.6887 186.899 24.506C186.899 26.362 186.416 28.1793 185.449 29.958C184.521 31.7367 183.187 33.2253 181.447 34.424C179.746 35.584 177.716 36.2607 175.357 36.454C176.169 37.0727 176.865 37.8653 177.445 38.832C178.025 39.76 178.624 40.8233 179.243 42.022C179.784 43.1047 180.422 44.1487 181.157 45.154C181.892 46.1207 182.897 46.604 184.173 46.604C184.83 46.604 185.372 46.4493 185.797 46.14C186.222 45.792 186.59 45.2313 186.899 44.458L187.247 44.632C187.44 45.212 187.556 45.7727 187.595 46.314C187.672 46.8553 187.711 47.358 187.711 47.822C187.711 50.258 187.034 52.3073 185.681 53.97C184.328 55.594 182.588 56.406 180.461 56.406ZM170.137 31.35C171.529 31.35 172.728 31.0407 173.733 30.422C174.777 29.7647 175.57 28.972 176.111 28.044C176.691 27.0773 176.981 26.1107 176.981 25.144C176.981 23.9453 176.517 22.9013 175.589 22.012C174.7 21.084 173.23 20.62 171.181 20.62C170.872 20.62 170.543 20.6393 170.195 20.678C169.886 20.678 169.576 20.6973 169.267 20.736C169.306 21.0067 169.325 21.2773 169.325 21.548C169.325 21.78 169.325 21.896 169.325 21.896C169.325 23.6747 169.248 25.3953 169.093 27.058C168.977 28.7207 168.803 30.1127 168.571 31.234C168.842 31.2727 169.093 31.3113 169.325 31.35C169.596 31.35 169.866 31.35 170.137 31.35ZM198.294 56.232C196.554 56.232 195.085 55.5167 193.886 54.086C192.726 52.6553 192.146 50.7413 192.146 48.344C192.146 47.0293 192.301 45.618 192.61 44.11C192.919 42.602 193.229 41.1713 193.538 39.818C193.809 38.8127 194.021 37.8847 194.176 37.034C194.369 36.1447 194.466 35.4293 194.466 34.888C194.466 34.192 194.311 33.6893 194.002 33.38C193.731 33.0707 193.403 32.916 193.016 32.916C192.629 32.916 192.243 33.0513 191.856 33.322C191.469 33.554 191.16 33.9213 190.928 34.424L190.464 34.25C190.464 32.6647 190.851 31.3113 191.624 30.19C192.397 29.0687 193.383 28.218 194.582 27.638C195.781 27.058 196.999 26.768 198.236 26.768C199.241 26.768 200.208 26.9807 201.136 27.406C202.064 27.7927 202.818 28.4113 203.398 29.262C204.017 30.1127 204.326 31.176 204.326 32.452C204.326 33.2253 204.21 34.1533 203.978 35.236C203.785 36.3187 203.553 37.44 203.282 38.6C203.011 39.7987 202.741 41.0167 202.47 42.254C202.238 43.4527 202.122 44.516 202.122 45.444C202.122 46.2947 202.257 46.9907 202.528 47.532C202.799 48.0733 203.205 48.344 203.746 48.344C204.751 48.344 205.873 47.416 207.11 45.56C208.386 43.704 209.411 41.21 210.184 38.078C210.339 37.4593 210.474 36.802 210.59 36.106C210.706 35.41 210.764 34.6947 210.764 33.96C210.764 33.38 210.725 32.8 210.648 32.22C210.571 31.6013 210.455 30.9827 210.3 30.364V29.958C210.919 28.914 211.711 28.1213 212.678 27.58C213.683 27.0387 214.689 26.768 215.694 26.768C217.047 26.768 218.265 27.232 219.348 28.16C220.431 29.088 220.972 30.4413 220.972 32.22C220.972 33.264 220.779 34.482 220.392 35.874C220.005 37.2273 219.58 38.6387 219.116 40.108C218.652 41.5387 218.227 42.95 217.84 44.342C217.453 45.734 217.26 46.9713 217.26 48.054C217.26 49.6393 217.821 50.432 218.942 50.432C219.251 50.432 219.619 50.3547 220.044 50.2C220.508 50.0067 220.933 49.6393 221.32 49.098L221.726 49.214C221.726 50.606 221.339 51.8433 220.566 52.926C219.831 53.97 218.884 54.782 217.724 55.362C216.564 55.942 215.365 56.232 214.128 56.232C212.543 56.232 211.112 55.652 209.836 54.492C208.599 53.332 207.98 51.4373 207.98 48.808V48.692C206.395 51.3987 204.751 53.332 203.05 54.492C201.349 55.652 199.763 56.232 198.294 56.232ZM234.594 56.522C232.197 56.522 230.205 56.1933 228.62 55.536C227.035 54.8787 225.855 54.0473 225.082 53.042C224.309 51.998 223.922 50.954 223.922 49.91C223.922 48.4407 224.579 47.1453 225.894 46.024C227.209 44.864 228.987 44.284 231.23 44.284C231.23 46.256 231.481 47.8413 231.984 49.04C232.487 50.2 233.125 51.0313 233.898 51.534C234.71 52.0367 235.483 52.288 236.218 52.288C237.107 52.288 237.842 52.0367 238.422 51.534C239.041 50.9927 239.35 50.3353 239.35 49.562C239.35 48.4793 238.789 47.532 237.668 46.72C236.547 45.908 235.097 44.9993 233.318 43.994C232.429 43.4527 231.462 42.834 230.418 42.138C229.374 41.4033 228.485 40.5333 227.75 39.528C227.015 38.484 226.648 37.2467 226.648 35.816C226.648 34.308 227.073 32.974 227.924 31.814C228.813 30.654 229.973 29.6873 231.404 28.914C232.835 28.102 234.381 27.5027 236.044 27.116C237.707 26.6907 239.331 26.478 240.916 26.478C243.893 26.478 246.136 27.0773 247.644 28.276C249.152 29.4747 249.906 30.7507 249.906 32.104C249.906 33.264 249.326 34.308 248.166 35.236C247.006 36.164 245.227 36.628 242.83 36.628C242.869 34.656 242.463 33.2253 241.612 32.336C240.761 31.408 239.853 30.944 238.886 30.944C238.19 30.944 237.61 31.1567 237.146 31.582C236.682 32.0073 236.45 32.626 236.45 33.438C236.45 34.366 236.74 35.178 237.32 35.874C237.939 36.5313 238.693 37.1307 239.582 37.672C240.51 38.1747 241.457 38.658 242.424 39.122C243.739 39.7407 244.976 40.398 246.136 41.094C247.296 41.79 248.243 42.5827 248.978 43.472C249.713 44.3613 250.08 45.444 250.08 46.72C250.08 48.46 249.365 50.084 247.934 51.592C246.542 53.0613 244.667 54.26 242.308 55.188C239.949 56.0773 237.378 56.522 234.594 56.522ZM263.311 56.522C260.914 56.522 258.922 56.1933 257.337 55.536C255.752 54.8787 254.572 54.0473 253.799 53.042C253.026 51.998 252.639 50.954 252.639 49.91C252.639 48.4407 253.296 47.1453 254.611 46.024C255.926 44.864 257.704 44.284 259.947 44.284C259.947 46.256 260.198 47.8413 260.701 49.04C261.204 50.2 261.842 51.0313 262.615 51.534C263.427 52.0367 264.2 52.288 264.935 52.288C265.824 52.288 266.559 52.0367 267.139 51.534C267.758 50.9927 268.067 50.3353 268.067 49.562C268.067 48.4793 267.506 47.532 266.385 46.72C265.264 45.908 263.814 44.9993 262.035 43.994C261.146 43.4527 260.179 42.834 259.135 42.138C258.091 41.4033 257.202 40.5333 256.467 39.528C255.732 38.484 255.365 37.2467 255.365 35.816C255.365 34.308 255.79 32.974 256.641 31.814C257.53 30.654 258.69 29.6873 260.121 28.914C261.552 28.102 263.098 27.5027 264.761 27.116C266.424 26.6907 268.048 26.478 269.633 26.478C272.61 26.478 274.853 27.0773 276.361 28.276C277.869 29.4747 278.623 30.7507 278.623 32.104C278.623 33.264 278.043 34.308 276.883 35.236C275.723 36.164 273.944 36.628 271.547 36.628C271.586 34.656 271.18 33.2253 270.329 32.336C269.478 31.408 268.57 30.944 267.603 30.944C266.907 30.944 266.327 31.1567 265.863 31.582C265.399 32.0073 265.167 32.626 265.167 33.438C265.167 34.366 265.457 35.178 266.037 35.874C266.656 36.5313 267.41 37.1307 268.299 37.672C269.227 38.1747 270.174 38.658 271.141 39.122C272.456 39.7407 273.693 40.398 274.853 41.094C276.013 41.79 276.96 42.5827 277.695 43.472C278.43 44.3613 278.797 45.444 278.797 46.72C278.797 48.46 278.082 50.084 276.651 51.592C275.259 53.0613 273.384 54.26 271.025 55.188C268.666 56.0773 266.095 56.522 263.311 56.522ZM294.812 56.406C291.912 56.406 289.514 55.826 287.62 54.666C285.725 53.506 284.314 51.9787 283.386 50.084C282.496 48.1507 282.052 46.1013 282.052 43.936C282.052 41.8867 282.419 39.8373 283.154 37.788C283.927 35.7387 285.029 33.8827 286.46 32.22C287.929 30.5187 289.708 29.1653 291.796 28.16C293.884 27.116 296.281 26.594 298.988 26.594C301.888 26.594 304.266 27.1933 306.122 28.392C308.016 29.552 309.408 31.0987 310.298 33.032C311.226 34.9653 311.69 37.034 311.69 39.238C311.69 41.2487 311.322 43.2787 310.588 45.328C309.853 47.3387 308.751 49.1947 307.282 50.896C305.851 52.5587 304.092 53.8927 302.004 54.898C299.916 55.9033 297.518 56.406 294.812 56.406ZM296.378 51.476C297.422 51.476 298.292 50.9347 298.988 49.852C299.684 48.7693 300.206 47.3967 300.554 45.734C300.902 44.0327 301.076 42.312 301.076 40.572C301.076 39.0253 300.921 37.5753 300.612 36.222C300.341 34.83 299.916 33.7087 299.336 32.858C298.756 31.9687 298.002 31.524 297.074 31.524C296.068 31.524 295.198 32.0653 294.464 33.148C293.768 34.2307 293.246 35.6033 292.898 37.266C292.55 38.9287 292.376 40.6493 292.376 42.428C292.376 43.9747 292.511 45.444 292.782 46.836C293.091 48.1893 293.536 49.3107 294.116 50.2C294.696 51.0507 295.45 51.476 296.378 51.476Z" fill="white"/>
<path d="M6.66667 94.35C5.61111 94.35 4.67222 94.1333 3.85 93.7C3.02778 93.2667 2.37778 92.65 1.9 91.85C1.43333 91.0389 1.2 90.0722 1.2 88.95V79H4.3V88.8C4.3 89.6111 4.52222 90.2556 4.96667 90.7333C5.42222 91.2111 6.00556 91.45 6.71667 91.45C7.41667 91.45 7.99444 91.2222 8.45 90.7667C8.90556 90.3 9.13333 89.6778 9.13333 88.9V79H12.1333V88.9C12.1333 90.0333 11.9 91.0111 11.4333 91.8333C10.9667 92.6444 10.3222 93.2667 9.5 93.7C8.68889 94.1333 7.74444 94.35 6.66667 94.35ZM12.9438 94L18.0271 85.3833L14.1438 79H17.5771L18.8937 81.1167C19.0938 81.4389 19.2938 81.7833 19.4938 82.15C19.7049 82.5167 19.9326 82.95 20.1771 83.45C20.4104 82.9389 20.6271 82.5 20.8271 82.1333C21.0271 81.7667 21.2326 81.4222 21.4438 81.1L22.7771 79H26.0438L22.2104 85.3L27.3438 94H23.8604L21.2104 89.5C21.0326 89.1889 20.8549 88.8667 20.6771 88.5333C20.4993 88.2 20.3049 87.8389 20.0938 87.45C19.8826 87.8389 19.6882 88.2 19.5104 88.5333C19.3438 88.8667 19.166 89.1889 18.9771 89.5L16.3271 94H12.9438ZM37.9604 94.2667C37.0271 94.2667 36.1826 94.0278 35.4271 93.55C34.6715 93.0722 34.066 92.4389 33.6104 91.65C33.166 90.85 32.9438 89.9667 32.9438 89C32.9438 88.0333 33.166 87.15 33.6104 86.35C34.066 85.55 34.6715 84.9167 35.4271 84.45C36.1826 83.9722 37.0271 83.7333 37.9604 83.7333C38.4937 83.7333 38.9882 83.8111 39.4438 83.9667C39.8993 84.1222 40.3104 84.3444 40.6771 84.6333V78H43.5771V94H41.0771V93.0167C40.6993 93.4056 40.2438 93.7111 39.7104 93.9333C39.1771 94.1556 38.5938 94.2667 37.9604 94.2667ZM38.2938 91.7167C38.7826 91.7167 39.2271 91.5944 39.6271 91.35C40.0271 91.1056 40.3438 90.7778 40.5771 90.3667C40.8215 89.9556 40.9438 89.5 40.9438 89C40.9438 88.5 40.8215 88.0444 40.5771 87.6333C40.3438 87.2222 40.0271 86.8944 39.6271 86.65C39.2271 86.4056 38.7826 86.2833 38.2938 86.2833C37.8049 86.2833 37.3604 86.4056 36.9604 86.65C36.5604 86.8944 36.2382 87.2222 35.9938 87.6333C35.7604 88.0444 35.6438 88.5 35.6438 89C35.6438 89.5 35.7604 89.9556 35.9938 90.3667C36.2382 90.7778 36.5604 91.1056 36.9604 91.35C37.3604 91.5944 37.8049 91.7167 38.2938 91.7167ZM50.9552 94.3333C49.833 94.3333 48.8441 94.1 47.9885 93.6333C47.133 93.1667 46.4663 92.5278 45.9885 91.7167C45.5108 90.8944 45.2719 89.9556 45.2719 88.9C45.2719 87.8889 45.5052 86.9944 45.9719 86.2167C46.4385 85.4278 47.0663 84.8056 47.8552 84.35C48.6552 83.8944 49.5385 83.6667 50.5052 83.6667C51.4941 83.6667 52.3774 83.8944 53.1552 84.35C53.933 84.7944 54.5441 85.4056 54.9885 86.1833C55.4441 86.9611 55.6719 87.8444 55.6719 88.8333V89.85H49.5719C49.2941 89.85 49.0274 89.8333 48.7719 89.8C48.5163 89.7667 48.2608 89.7278 48.0052 89.6833C48.1385 90.35 48.4663 90.8944 48.9885 91.3167C49.5219 91.7278 50.1997 91.9333 51.0219 91.9333C51.6552 91.9333 52.2219 91.8056 52.7219 91.55C53.233 91.2944 53.6497 90.9778 53.9719 90.6L54.6052 93.2C54.1052 93.5778 53.5385 93.8611 52.9052 94.05C52.283 94.2389 51.633 94.3333 50.9552 94.3333ZM47.9385 87.9333C48.4941 87.8111 49.0385 87.75 49.5719 87.75H51.3385C51.6497 87.75 51.9441 87.7611 52.2219 87.7833C52.4997 87.8056 52.7608 87.8444 53.0052 87.9C52.8385 87.3 52.533 86.8278 52.0885 86.4833C51.6552 86.1389 51.1163 85.9667 50.4719 85.9667C49.8608 85.9667 49.3274 86.1444 48.8719 86.5C48.4274 86.8444 48.1163 87.3222 47.9385 87.9333ZM60.563 94.3333C59.8852 94.3333 59.1964 94.2222 58.4964 94C57.8075 93.7778 57.2686 93.4778 56.8797 93.1L57.5964 90.3667C57.9186 90.8111 58.363 91.2 58.9297 91.5333C59.5075 91.8667 60.1019 92.0333 60.713 92.0333C61.1241 92.0333 61.4186 91.9556 61.5964 91.8C61.7852 91.6444 61.8797 91.4556 61.8797 91.2333C61.8797 90.9778 61.7852 90.7944 61.5964 90.6833C61.4075 90.5611 61.213 90.4611 61.013 90.3833L59.613 89.85C59.3019 89.7278 58.9464 89.5611 58.5464 89.35C58.1464 89.1389 57.7964 88.8389 57.4964 88.45C57.2075 88.0611 57.063 87.55 57.063 86.9167C57.063 86.3389 57.2075 85.8056 57.4964 85.3167C57.7852 84.8278 58.2019 84.4333 58.7464 84.1333C59.3019 83.8222 59.9686 83.6667 60.7464 83.6667C61.4686 83.6667 62.1408 83.7889 62.763 84.0333C63.3964 84.2778 63.8575 84.55 64.1464 84.85L63.4797 87.4833C63.1019 86.9944 62.6519 86.6222 62.1297 86.3667C61.6186 86.1 61.1297 85.9667 60.663 85.9667C60.3075 85.9667 60.0464 86.0389 59.8797 86.1833C59.713 86.3278 59.6297 86.4944 59.6297 86.6833C59.6297 86.8278 59.6852 86.9722 59.7964 87.1167C59.9186 87.25 60.1186 87.3722 60.3964 87.4833L61.6964 87.9667C62.0741 88.1 62.4741 88.2778 62.8964 88.5C63.3297 88.7222 63.6964 89.0333 63.9964 89.4333C64.2964 89.8222 64.4464 90.3611 64.4464 91.05C64.4464 92.0167 64.0852 92.8056 63.363 93.4167C62.6519 94.0278 61.7186 94.3333 60.563 94.3333ZM66.149 94V84H69.049V94H66.149ZM67.599 82.55C67.1656 82.55 66.799 82.4 66.499 82.1C66.199 81.8 66.049 81.4333 66.049 81C66.049 80.5556 66.199 80.1889 66.499 79.9C66.799 79.6 67.1656 79.45 67.599 79.45C68.0434 79.45 68.4101 79.6 68.699 79.9C68.999 80.1889 69.149 80.5556 69.149 81C69.149 81.4333 68.999 81.8 68.699 82.1C68.4101 82.4 68.0434 82.55 67.599 82.55ZM75.6385 99.3333C74.8608 99.3333 74.1163 99.2167 73.4052 98.9833C72.7052 98.7611 72.0997 98.4556 71.5885 98.0667L72.2885 95.2C72.6441 95.6778 73.1108 96.0667 73.6885 96.3667C74.2663 96.6778 74.9163 96.8333 75.6385 96.8333C76.6608 96.8333 77.4552 96.5389 78.0219 95.95C78.5885 95.3722 78.8719 94.6278 78.8719 93.7167V93.0167C78.4941 93.4056 78.0385 93.7111 77.5052 93.9333C76.983 94.1556 76.4052 94.2667 75.7719 94.2667C74.8497 94.2667 74.0108 94.0278 73.2552 93.55C72.4997 93.0722 71.8941 92.4389 71.4385 91.65C70.9941 90.85 70.7719 89.9667 70.7719 89C70.7719 88.0333 70.9941 87.15 71.4385 86.35C71.8941 85.55 72.4997 84.9167 73.2552 84.45C74.0108 83.9722 74.8497 83.7333 75.7719 83.7333C76.4163 83.7333 77.0052 83.85 77.5385 84.0833C78.0719 84.3056 78.5274 84.6167 78.9052 85.0167V84H81.4052V94.1333C81.4052 95.2222 81.1385 96.1556 80.6052 96.9333C80.0719 97.7111 79.3663 98.3056 78.4885 98.7167C77.6108 99.1278 76.6608 99.3333 75.6385 99.3333ZM76.1219 91.7167C76.6108 91.7167 77.0552 91.5944 77.4552 91.35C77.8552 91.1056 78.1719 90.7778 78.4052 90.3667C78.6497 89.9556 78.7719 89.5 78.7719 89C78.7719 88.5 78.6497 88.0444 78.4052 87.6333C78.1719 87.2222 77.8552 86.8944 77.4552 86.65C77.0552 86.4056 76.6108 86.2833 76.1219 86.2833C75.633 86.2833 75.1885 86.4056 74.7885 86.65C74.3885 86.8944 74.0663 87.2222 73.8219 87.6333C73.5885 88.0444 73.4719 88.5 73.4719 89C73.4719 89.5 73.5885 89.9556 73.8219 90.3667C74.0663 90.7778 74.3885 91.1056 74.7885 91.35C75.1885 91.5944 75.633 91.7167 76.1219 91.7167ZM83.6 94V84H86.2V85.1C86.5556 84.6333 86.9944 84.2778 87.5167 84.0333C88.0389 83.7889 88.6 83.6667 89.2 83.6667C89.9111 83.6667 90.5722 83.8389 91.1833 84.1833C91.8056 84.5167 92.3056 85.0111 92.6833 85.6667C93.0722 86.3111 93.2667 87.0944 93.2667 88.0167V94H90.3667V88.4C90.3667 87.8444 90.2 87.35 89.8667 86.9167C89.5333 86.4833 89.0556 86.2667 88.4333 86.2667C87.9333 86.2667 87.4833 86.4389 87.0833 86.7833C86.6944 87.1167 86.5 87.6444 86.5 88.3667V94H83.6ZM100.455 94.3333C99.333 94.3333 98.3441 94.1 97.4885 93.6333C96.633 93.1667 95.9663 92.5278 95.4885 91.7167C95.0108 90.8944 94.7719 89.9556 94.7719 88.9C94.7719 87.8889 95.0052 86.9944 95.4719 86.2167C95.9385 85.4278 96.5663 84.8056 97.3552 84.35C98.1552 83.8944 99.0385 83.6667 100.005 83.6667C100.994 83.6667 101.877 83.8944 102.655 84.35C103.433 84.7944 104.044 85.4056 104.489 86.1833C104.944 86.9611 105.172 87.8444 105.172 88.8333V89.85H99.0719C98.7941 89.85 98.5274 89.8333 98.2719 89.8C98.0163 89.7667 97.7608 89.7278 97.5052 89.6833C97.6385 90.35 97.9663 90.8944 98.4885 91.3167C99.0219 91.7278 99.6997 91.9333 100.522 91.9333C101.155 91.9333 101.722 91.8056 102.222 91.55C102.733 91.2944 103.15 90.9778 103.472 90.6L104.105 93.2C103.605 93.5778 103.039 93.8611 102.405 94.05C101.783 94.2389 101.133 94.3333 100.455 94.3333ZM97.4385 87.9333C97.9941 87.8111 98.5385 87.75 99.0719 87.75H100.839C101.15 87.75 101.444 87.7611 101.722 87.7833C102 87.8056 102.261 87.8444 102.505 87.9C102.339 87.3 102.033 86.8278 101.589 86.4833C101.155 86.1389 100.616 85.9667 99.9719 85.9667C99.3608 85.9667 98.8274 86.1444 98.3719 86.5C97.9274 86.8444 97.6163 87.3222 97.4385 87.9333ZM106.78 94V84H109.38V85.7167C109.724 85.1389 110.157 84.6944 110.68 84.3833C111.213 84.0611 111.835 83.9 112.546 83.9L113.18 86.4667C112.969 86.4 112.73 86.3667 112.463 86.3667C111.63 86.3667 110.957 86.6389 110.446 87.1833C109.935 87.7167 109.68 88.4833 109.68 89.4833V94H106.78ZM123.936 94.2667C123.014 94.2667 122.175 94.0278 121.419 93.55C120.664 93.0722 120.058 92.4389 119.603 91.65C119.158 90.85 118.936 89.9667 118.936 89C118.936 88.0333 119.158 87.15 119.603 86.35C120.058 85.55 120.664 84.9167 121.419 84.45C122.175 83.9722 123.014 83.7333 123.936 83.7333C124.58 83.7333 125.169 83.85 125.703 84.0833C126.236 84.3056 126.691 84.6167 127.069 85.0167V84H129.569V94H127.069V92.9833C126.691 93.3833 126.236 93.7 125.703 93.9333C125.169 94.1556 124.58 94.2667 123.936 94.2667ZM124.286 91.7167C124.775 91.7167 125.219 91.5944 125.619 91.35C126.019 91.1056 126.336 90.7778 126.569 90.3667C126.814 89.9556 126.936 89.5 126.936 89C126.936 88.5 126.814 88.0444 126.569 87.6333C126.336 87.2222 126.019 86.8944 125.619 86.65C125.219 86.4056 124.775 86.2833 124.286 86.2833C123.797 86.2833 123.353 86.4056 122.953 86.65C122.553 86.8944 122.23 87.2222 121.986 87.6333C121.753 88.0444 121.636 88.5 121.636 89C121.636 89.5 121.753 89.9556 121.986 90.3667C122.23 90.7778 122.553 91.1056 122.953 91.35C123.353 91.5944 123.797 91.7167 124.286 91.7167ZM131.764 94V84H134.364V85.1C134.72 84.6333 135.159 84.2778 135.681 84.0333C136.203 83.7889 136.764 83.6667 137.364 83.6667C138.075 83.6667 138.736 83.8389 139.347 84.1833C139.97 84.5167 140.47 85.0111 140.847 85.6667C141.236 86.3111 141.431 87.0944 141.431 88.0167V94H138.531V88.4C138.531 87.8444 138.364 87.35 138.031 86.9167C137.697 86.4833 137.22 86.2667 136.597 86.2667C136.097 86.2667 135.647 86.4389 135.247 86.7833C134.859 87.1167 134.664 87.6444 134.664 88.3667V94H131.764ZM147.953 94.2667C147.019 94.2667 146.175 94.0278 145.419 93.55C144.664 93.0722 144.058 92.4389 143.603 91.65C143.158 90.85 142.936 89.9667 142.936 89C142.936 88.0333 143.158 87.15 143.603 86.35C144.058 85.55 144.664 84.9167 145.419 84.45C146.175 83.9722 147.019 83.7333 147.953 83.7333C148.486 83.7333 148.98 83.8111 149.436 83.9667C149.891 84.1222 150.303 84.3444 150.669 84.6333V78H153.569V94H151.069V93.0167C150.691 93.4056 150.236 93.7111 149.703 93.9333C149.169 94.1556 148.586 94.2667 147.953 94.2667ZM148.286 91.7167C148.775 91.7167 149.219 91.5944 149.619 91.35C150.019 91.1056 150.336 90.7778 150.569 90.3667C150.814 89.9556 150.936 89.5 150.936 89C150.936 88.5 150.814 88.0444 150.569 87.6333C150.336 87.2222 150.019 86.8944 149.619 86.65C149.219 86.4056 148.775 86.2833 148.286 86.2833C147.797 86.2833 147.353 86.4056 146.953 86.65C146.553 86.8944 146.23 87.2222 145.986 87.6333C145.753 88.0444 145.636 88.5 145.636 89C145.636 89.5 145.753 89.9556 145.986 90.3667C146.23 90.7778 146.553 91.1056 146.953 91.35C147.353 91.5944 147.797 91.7167 148.286 91.7167ZM164.04 94.3333C163.362 94.3333 162.673 94.2222 161.973 94C161.284 93.7778 160.745 93.4778 160.356 93.1L161.073 90.3667C161.395 90.8111 161.84 91.2 162.406 91.5333C162.984 91.8667 163.578 92.0333 164.19 92.0333C164.601 92.0333 164.895 91.9556 165.073 91.8C165.262 91.6444 165.356 91.4556 165.356 91.2333C165.356 90.9778 165.262 90.7944 165.073 90.6833C164.884 90.5611 164.69 90.4611 164.49 90.3833L163.09 89.85C162.778 89.7278 162.423 89.5611 162.023 89.35C161.623 89.1389 161.273 88.8389 160.973 88.45C160.684 88.0611 160.54 87.55 160.54 86.9167C160.54 86.3389 160.684 85.8056 160.973 85.3167C161.262 84.8278 161.678 84.4333 162.223 84.1333C162.778 83.8222 163.445 83.6667 164.223 83.6667C164.945 83.6667 165.617 83.7889 166.24 84.0333C166.873 84.2778 167.334 84.55 167.623 84.85L166.956 87.4833C166.578 86.9944 166.128 86.6222 165.606 86.3667C165.095 86.1 164.606 85.9667 164.14 85.9667C163.784 85.9667 163.523 86.0389 163.356 86.1833C163.19 86.3278 163.106 86.4944 163.106 86.6833C163.106 86.8278 163.162 86.9722 163.273 87.1167C163.395 87.25 163.595 87.3722 163.873 87.4833L165.173 87.9667C165.551 88.1 165.951 88.2778 166.373 88.5C166.806 88.7222 167.173 89.0333 167.473 89.4333C167.773 89.8222 167.923 90.3611 167.923 91.05C167.923 92.0167 167.562 92.8056 166.84 93.4167C166.128 94.0278 165.195 94.3333 164.04 94.3333ZM170.759 94V86.3H168.892V84H170.809V80.6667H173.609V84H175.592V86.3H173.659V94H170.759ZM177.092 94V84H179.692V85.7167C180.037 85.1389 180.47 84.6944 180.992 84.3833C181.526 84.0611 182.148 83.9 182.859 83.9L183.492 86.4667C183.281 86.4 183.042 86.3667 182.776 86.3667C181.942 86.3667 181.27 86.6389 180.759 87.1833C180.248 87.7167 179.992 88.4833 179.992 89.4833V94H177.092ZM188.928 94.2667C188.006 94.2667 187.167 94.0278 186.411 93.55C185.656 93.0722 185.05 92.4389 184.595 91.65C184.15 90.85 183.928 89.9667 183.928 89C183.928 88.0333 184.15 87.15 184.595 86.35C185.05 85.55 185.656 84.9167 186.411 84.45C187.167 83.9722 188.006 83.7333 188.928 83.7333C189.573 83.7333 190.161 83.85 190.695 84.0833C191.228 84.3056 191.684 84.6167 192.061 85.0167V84H194.561V94H192.061V92.9833C191.684 93.3833 191.228 93.7 190.695 93.9333C190.161 94.1556 189.573 94.2667 188.928 94.2667ZM189.278 91.7167C189.767 91.7167 190.211 91.5944 190.611 91.35C191.011 91.1056 191.328 90.7778 191.561 90.3667C191.806 89.9556 191.928 89.5 191.928 89C191.928 88.5 191.806 88.0444 191.561 87.6333C191.328 87.2222 191.011 86.8944 190.611 86.65C190.211 86.4056 189.767 86.2833 189.278 86.2833C188.789 86.2833 188.345 86.4056 187.945 86.65C187.545 86.8944 187.223 87.2222 186.978 87.6333C186.745 88.0444 186.628 88.5 186.628 89C186.628 89.5 186.745 89.9556 186.978 90.3667C187.223 90.7778 187.545 91.1056 187.945 91.35C188.345 91.5944 188.789 91.7167 189.278 91.7167ZM197.923 94V86.3H196.056V84H197.973V80.6667H200.773V84H202.756V86.3H200.823V94H197.923ZM208.947 94.3333C207.825 94.3333 206.836 94.1 205.981 93.6333C205.125 93.1667 204.459 92.5278 203.981 91.7167C203.503 90.8944 203.264 89.9556 203.264 88.9C203.264 87.8889 203.497 86.9944 203.964 86.2167C204.431 85.4278 205.059 84.8056 205.847 84.35C206.647 83.8944 207.531 83.6667 208.497 83.6667C209.486 83.6667 210.37 83.8944 211.147 84.35C211.925 84.7944 212.536 85.4056 212.981 86.1833C213.436 86.9611 213.664 87.8444 213.664 88.8333V89.85H207.564C207.286 89.85 207.02 89.8333 206.764 89.8C206.509 89.7667 206.253 89.7278 205.997 89.6833C206.131 90.35 206.459 90.8944 206.981 91.3167C207.514 91.7278 208.192 91.9333 209.014 91.9333C209.647 91.9333 210.214 91.8056 210.714 91.55C211.225 91.2944 211.642 90.9778 211.964 90.6L212.597 93.2C212.097 93.5778 211.531 93.8611 210.897 94.05C210.275 94.2389 209.625 94.3333 208.947 94.3333ZM205.931 87.9333C206.486 87.8111 207.031 87.75 207.564 87.75H209.331C209.642 87.75 209.936 87.7611 210.214 87.7833C210.492 87.8056 210.753 87.8444 210.997 87.9C210.831 87.3 210.525 86.8278 210.081 86.4833C209.647 86.1389 209.109 85.9667 208.464 85.9667C207.853 85.9667 207.32 86.1444 206.864 86.5C206.42 86.8444 206.109 87.3222 205.931 87.9333ZM219.639 99.3333C218.861 99.3333 218.116 99.2167 217.405 98.9833C216.705 98.7611 216.1 98.4556 215.589 98.0667L216.289 95.2C216.644 95.6778 217.111 96.0667 217.689 96.3667C218.266 96.6778 218.916 96.8333 219.639 96.8333C220.661 96.8333 221.455 96.5389 222.022 95.95C222.589 95.3722 222.872 94.6278 222.872 93.7167V93.0167C222.494 93.4056 222.039 93.7111 221.505 93.9333C220.983 94.1556 220.405 94.2667 219.772 94.2667C218.85 94.2667 218.011 94.0278 217.255 93.55C216.5 93.0722 215.894 92.4389 215.439 91.65C214.994 90.85 214.772 89.9667 214.772 89C214.772 88.0333 214.994 87.15 215.439 86.35C215.894 85.55 216.5 84.9167 217.255 84.45C218.011 83.9722 218.85 83.7333 219.772 83.7333C220.416 83.7333 221.005 83.85 221.539 84.0833C222.072 84.3056 222.527 84.6167 222.905 85.0167V84H225.405V94.1333C225.405 95.2222 225.139 96.1556 224.605 96.9333C224.072 97.7111 223.366 98.3056 222.489 98.7167C221.611 99.1278 220.661 99.3333 219.639 99.3333ZM220.122 91.7167C220.611 91.7167 221.055 91.5944 221.455 91.35C221.855 91.1056 222.172 90.7778 222.405 90.3667C222.65 89.9556 222.772 89.5 222.772 89C222.772 88.5 222.65 88.0444 222.405 87.6333C222.172 87.2222 221.855 86.8944 221.455 86.65C221.055 86.4056 220.611 86.2833 220.122 86.2833C219.633 86.2833 219.189 86.4056 218.789 86.65C218.389 86.8944 218.066 87.2222 217.822 87.6333C217.589 88.0444 217.472 88.5 217.472 89C217.472 89.5 217.589 89.9556 217.822 90.3667C218.066 90.7778 218.389 91.1056 218.789 91.35C219.189 91.5944 219.633 91.7167 220.122 91.7167ZM227.633 94V84H230.533V94H227.633ZM229.083 82.55C228.65 82.55 228.283 82.4 227.983 82.1C227.683 81.8 227.533 81.4333 227.533 81C227.533 80.5556 227.683 80.1889 227.983 79.9C228.283 79.6 228.65 79.45 229.083 79.45C229.528 79.45 229.894 79.6 230.183 79.9C230.483 80.1889 230.633 80.5556 230.633 81C230.633 81.4333 230.483 81.8 230.183 82.1C229.894 82.4 229.528 82.55 229.083 82.55ZM236.04 94.3333C235.362 94.3333 234.673 94.2222 233.973 94C233.284 93.7778 232.745 93.4778 232.356 93.1L233.073 90.3667C233.395 90.8111 233.84 91.2 234.406 91.5333C234.984 91.8667 235.578 92.0333 236.19 92.0333C236.601 92.0333 236.895 91.9556 237.073 91.8C237.262 91.6444 237.356 91.4556 237.356 91.2333C237.356 90.9778 237.262 90.7944 237.073 90.6833C236.884 90.5611 236.69 90.4611 236.49 90.3833L235.09 89.85C234.778 89.7278 234.423 89.5611 234.023 89.35C233.623 89.1389 233.273 88.8389 232.973 88.45C232.684 88.0611 232.54 87.55 232.54 86.9167C232.54 86.3389 232.684 85.8056 232.973 85.3167C233.262 84.8278 233.678 84.4333 234.223 84.1333C234.778 83.8222 235.445 83.6667 236.223 83.6667C236.945 83.6667 237.617 83.7889 238.24 84.0333C238.873 84.2778 239.334 84.55 239.623 84.85L238.956 87.4833C238.578 86.9944 238.128 86.6222 237.606 86.3667C237.095 86.1 236.606 85.9667 236.14 85.9667C235.784 85.9667 235.523 86.0389 235.356 86.1833C235.19 86.3278 235.106 86.4944 235.106 86.6833C235.106 86.8278 235.162 86.9722 235.273 87.1167C235.395 87.25 235.595 87.3722 235.873 87.4833L237.173 87.9667C237.551 88.1 237.951 88.2778 238.373 88.5C238.806 88.7222 239.173 89.0333 239.473 89.4333C239.773 89.8222 239.923 90.3611 239.923 91.05C239.923 92.0167 239.562 92.8056 238.84 93.4167C238.128 94.0278 237.195 94.3333 236.04 94.3333ZM242.759 94V86.3H240.892V84H242.809V80.6667H245.609V84H247.592V86.3H245.659V94H242.759Z" fill="white"/>
</svg>
